<?xml version="1.0" encoding="UTF-8"?>
<svg width="260" height="64" viewBox="0 0 260 64" fill="none" xmlns="http://www.w3.org/2000/svg" role="img" aria-label="WPRankLab">
  <!--
    Original logo generated for WPRankLab (croc mascot + wordmark).
    Colors:
      Orange: #FB6A08
      Outline: #0B2A3A
      White: #FFFFFF
      Accent (teal-ish): #19AEAD
      Accent (blue): #177CD4
  -->
  <defs>
    <filter id="shadow" x="-20%" y="-40%" width="140%" height="200%">
      <feDropShadow dx="0" dy="1.5" stdDeviation="1.5" flood-color="#000000" flood-opacity="0.15"/>
    </filter>
  </defs>

  <!-- Mascot group -->
  <g transform="translate(6,8)" filter="url(#shadow)">
    <!-- Body -->
    <path d="M34 33c0 8.2-6.6 14.8-14.8 14.8S4.4 41.2 4.4 33 11 18.2 19.2 18.2c3.6 0 6.9 1.3 9.4 3.4 1.1.9 2.8.5 3.5-.8l1.8-3.2c.7-1.2 2.4-1.6 3.7-.7 1.2.9 1.4 2.6.6 3.8l-1.7 2.6c-1 1.5-.6 3.4 1 4.3 2.2 1.3 3.7 3.7 3.7 6.7Z"
          fill="#19AEAD" stroke="#0B2A3A" stroke-width="2.5" stroke-linecap="round" stroke-linejoin="round"/>
    <!-- Belly -->
    <path d="M10.8 35.8c1.8 5 6.6 8.6 12.3 8.6 3.7 0 7-1.5 9.4-3.9"
          stroke="#E5F8FF" stroke-width="4.5" stroke-linecap="round"/>

    <!-- Snout -->
    <path d="M40.8 27.8c2.4-.2 4.8 1.2 5.7 3.5.8 2.2-.2 4.8-2.2 6l-6.4 3.8c-2.1 1.2-4.7.6-6.1-1.3"
          fill="#19AEAD" stroke="#0B2A3A" stroke-width="2.5" stroke-linecap="round" stroke-linejoin="round"/>

    <!-- Teeth -->
    <path d="M41.2 35.2l2.2 1.3-2.4 1.4-2.2-1.3 2.4-1.4Z" fill="#FFFFFF" stroke="#0B2A3A" stroke-width="1.2" stroke-linejoin="round"/>
    <path d="M37.6 37.3l2.2 1.3-2.4 1.4-2.2-1.3 2.4-1.4Z" fill="#FFFFFF" stroke="#0B2A3A" stroke-width="1.2" stroke-linejoin="round"/>

    <!-- Eye -->
    <circle cx="25.2" cy="25.5" r="5.3" fill="#FFFFFF" stroke="#0B2A3A" stroke-width="2.5"/>
    <circle cx="26.6" cy="26.6" r="2.0" fill="#0B2A3A"/>
    <circle cx="27.4" cy="26.0" r="0.6" fill="#FFFFFF"/>

    <!-- Cap -->
    <path d="M23.5 14.2c3.3-2.7 7.9-3.4 11.8-1.9 2.6 1 4.3 2.7 5.1 4.4 0 0-4.2.2-8.5 2.6-4.2 2.3-7 6-7 6 0-2.1-.7-4-1.4-5.2Z"
          fill="#177CD4" stroke="#0B2A3A" stroke-width="2.5" stroke-linecap="round" stroke-linejoin="round"/>
    <path d="M40.4 14.9c-2.3-.3-5.2 0-8.1 1.6-2.9 1.6-5 3.8-6.2 5.7"
          stroke="#E5F8FF" stroke-width="2.5" stroke-linecap="round"/>

    <!-- Hand -->
    <path d="M12.4 23.8c-1.8-1.2-4.6-1.1-6.4.3-1.5 1.2-2.1 3-1.4 4.4.8 1.6 2.9 2.1 5.1 1.3"
          fill="#19AEAD" stroke="#0B2A3A" stroke-width="2.5" stroke-linecap="round" stroke-linejoin="round"/>
    <path d="M3.2 28.1l2.8-1.3" stroke="#0B2A3A" stroke-width="2.2" stroke-linecap="round"/>
    <path d="M4.2 30.6l2.7-1.2" stroke="#0B2A3A" stroke-width="2.2" stroke-linecap="round"/>
  </g>

  <!-- Wordmark -->
  <g transform="translate(64,14)">
    <!-- Bold rounded block letters -->
    <text x="0" y="30"
          font-family="Inter, system-ui, -apple-system, Segoe UI, Roboto, Helvetica, Arial, sans-serif"
          font-size="28"
          font-weight="800"
          letter-spacing="2"
          fill="#FB6A08"
          stroke="#0B2A3A"
          stroke-width="2"
          paint-order="stroke fill">
      WPRANKLAB
    </text>
  </g>
</svg>